<svg width="26" height="25" viewBox="0 0 26 25" fill="none" xmlns="http://www.w3.org/2000/svg">
<path fill-rule="evenodd" clip-rule="evenodd" d="M19.5913 5.26187C20.3253 5.94844 20.3431 7.18919 19.4968 8.01691L11.2114 16.1205C10.9971 16.3301 10.7303 16.3302 10.5256 16.121C10.3209 15.9117 10.327 15.6449 10.5413 15.4354L17.3947 8.7324C17.7941 8.3417 17.8086 7.7087 17.4271 7.31856C17.0455 6.92841 16.4123 6.92886 16.0128 7.31955L9.15947 14.0225C8.14627 15.0135 8.11117 16.5462 9.07902 17.5358C10.0469 18.5254 11.58 18.5243 12.5932 17.5333L20.8787 9.42975C22.4821 7.86153 22.5914 5.31481 20.9922 3.80179C19.4593 2.25104 16.9254 2.20712 15.3784 3.83519L5.67549 13.3252C3.43483 15.5167 3.35623 18.9489 5.49661 21.1373C7.63699 23.3257 11.0702 23.3233 13.3108 21.1318L21.5962 13.0282C21.9957 12.6376 22.0102 12.0046 21.6286 11.6144C21.247 11.2243 20.6139 11.2247 20.2144 11.6154L11.929 19.719C10.4872 21.1291 8.32041 21.1306 6.9432 19.7225C5.56599 18.3144 5.61559 16.1481 7.05733 14.738L16.7748 5.23381C16.7853 5.22356 16.7955 5.2131 16.8056 5.20241C17.51 4.45237 18.7522 4.4053 19.5606 5.23185C19.5706 5.24208 19.5808 5.25209 19.5913 5.26187Z" fill="#36B37E"/>
</svg>
